<?xml version="1.0" encoding="utf-8"?>
<!-- Generator: Adobe Illustrator 16.0.3, SVG Export Plug-In . SVG Version: 6.00 Build 0)  -->
<!DOCTYPE svg PUBLIC "-//W3C//DTD SVG 1.1//EN" "http://www.w3.org/Graphics/SVG/1.1/DTD/svg11.dtd">
<svg version="1.1" id="Layer_1" xmlns="http://www.w3.org/2000/svg" xmlns:xlink="http://www.w3.org/1999/xlink" x="0px" y="0px"
	 width="150px" height="48px" viewBox="0 0 150 48" enable-background="new 0 0 150 48" xml:space="preserve">
<g>
	<g>
		<polygon fill="#58585B" points="73.924,30.404 68.055,30.404 68.055,34.59 73.706,34.59 73.706,36.383 68.055,36.383 
			68.055,40.676 74.086,40.676 74.086,42.471 66.099,42.471 66.099,28.613 73.924,28.613 		"/>
		<polygon fill="#58585B" points="78.407,28.613 80.199,28.613 80.199,42.471 78.407,42.471 		"/>
		<path fill="#58585B" d="M87.154,38.177h6.412c0-3.37-1.575-4.999-3.967-4.999c-2.5,0-4.24,1.848-4.24,4.619
			c0,2.499,1.576,4.835,4.402,4.835c1.521,0,2.5-0.38,3.641-1.087v-1.736c-1.086,0.702-2.12,1.086-3.205,1.086
			C88.458,40.895,87.426,39.969,87.154,38.177L87.154,38.177z M89.652,34.699c1.252,0,2.063,0.867,2.121,2.281h-4.564
			C87.426,35.514,88.241,34.699,89.652,34.699L89.652,34.699z"/>
		<path fill="#58585B" d="M104.95,35.73c-1.033-0.707-1.738-0.924-2.5-0.924c-1.685,0-2.771,1.25-2.771,3.1
			c0,1.9,1.191,3.043,3.043,3.043c0.76,0,1.521-0.219,2.441-0.598v1.733c-0.648,0.271-1.793,0.544-2.719,0.544
			c-2.717,0-4.617-1.898-4.617-4.563c0-2.986,1.736-4.892,4.456-4.892c1.087,0,1.794,0.22,2.661,0.603L104.95,35.73L104.95,35.73z"
			/>
		<path fill="#58585B" d="M113.046,33.341h2.882v1.63h-2.882v4.672c0,1.033,0.761,1.36,1.306,1.36c0.652,0,1.307-0.217,2.063-0.651
			v1.686c-0.649,0.322-1.628,0.598-2.228,0.598c-1.957,0-2.937-1.249-2.937-2.88v-4.778h-1.573v-0.221l3.366-3.313L113.046,33.341
			L113.046,33.341z"/>
		<path fill="#58585B" d="M122.421,33.341v2.117l0,0c0.925-1.629,1.791-2.28,2.661-2.28c0.706,0,1.412,0.324,2.173,1.032
			l-0.979,1.577c-0.541-0.544-1.248-0.87-1.682-0.87c-1.248,0-2.173,1.25-2.173,2.771v4.783h-1.793v-9.13H122.421L122.421,33.341z"
			/>
		<polygon fill="#58585B" points="132.361,33.341 134.154,33.341 134.154,42.471 132.361,42.471 		"/>
		<path fill="#58585B" d="M145.813,35.73c-1.029-0.707-1.74-0.924-2.502-0.924c-1.684,0-2.77,1.25-2.77,3.1
			c0,1.9,1.193,3.043,3.042,3.043c0.76,0,1.521-0.219,2.444-0.598v1.733c-0.651,0.271-1.793,0.544-2.717,0.544
			c-2.72,0-4.619-1.898-4.619-4.563c0-2.986,1.738-4.892,4.457-4.892c1.086,0,1.793,0.22,2.662,0.603v1.953H145.813z"/>
	</g>
	<g>
		<g>
			<path fill="#58585B" d="M17.074,8.271c-3.431-1.523-5.487-2.06-7.47-2.06c-2.134,0-3.506,0.763-3.506,1.906
				c0,3.581,12.042,2.593,12.042,10.822c0,4.496-3.812,7.167-9.069,7.167c-4.193,0-6.25-1.068-8.536-2.288v-5.107
				c3.353,2.288,5.41,3.049,8.078,3.049c2.286,0,3.506-0.761,3.506-2.208C12.119,15.737,0,17.112,0,8.65
				c0-4.116,3.583-6.783,9.071-6.783c2.667,0,5.03,0.534,8.003,1.83V8.271L17.074,8.271z"/>
			<path fill="#58585B" d="M33.994,25.036c-2.058,0.687-3.735,1.069-5.413,1.069c-5.64,0-9.298-3.279-9.298-8.312
				c0-4.877,3.812-8.309,9.07-8.309c1.601,0,3.736,0.382,5.413,1.068v3.733c-1.372-0.686-2.898-1.143-4.117-1.143
				c-3.048,0-4.952,1.827-4.952,4.649c0,2.818,1.904,4.727,4.8,4.727c1.22,0,2.288-0.307,4.497-1.145V25.036L33.994,25.036z"/>
			<path fill="#58585B" d="M47.028,23.057v-6.403c0-2.363-0.99-3.506-2.591-3.506c-1.145,0-2.135,0.763-3.354,2.439V25.8h-5.031
				V2.172h5.031v9.985h0.076c1.448-1.83,3.047-2.669,5.03-2.669c2.974,0,5.868,1.753,5.868,6.099v6.478
				C50.382,22.063,48.322,22.676,47.028,23.057L47.028,23.057z"/>
			<path fill="#58585B" d="M54.422,21.76c0-2.896,0-11.966,0-11.966h5.029v2.286c1.602-1.829,3.201-2.592,5.261-2.592
				c2.514,0,5.791,1.451,5.791,6.099V25.8h-5.031v-9.756c0-2.287-1.065-3.2-2.514-3.2c-1.221,0-2.135,0.688-3.507,2.666
				c0,0,0,4.42,0,7.014C57.774,22.063,56.022,21.913,54.422,21.76L54.422,21.76z"/>
			<path fill="#58585B" d="M80.945,9.488c-4.953,0-8.461,3.508-8.461,8.385c0,4.953,3.659,8.232,9.299,8.232
				c1.296,0,4.271,0,7.164-2.136v-3.126c-2.36,1.677-3.963,2.285-5.944,2.285c-3.126,0-5.104-1.677-5.26-4.495h11.435
				C89.482,12.767,85.596,9.488,80.945,9.488L80.945,9.488z M77.82,15.969c0.229-2.212,1.521-3.508,3.507-3.508
				c1.907,0,3.276,1.375,3.429,3.508H77.82L77.82,15.969z"/>
			<polygon fill="#58585B" points="91.158,9.794 96.188,9.794 96.188,25.8 91.158,25.8 			"/>
			<path fill="#58585B" d="M110.139,2.172v8.309c-1.298-0.61-2.668-0.992-4.117-0.992c-4.57,0-7.771,3.354-7.771,8.309
				c0,4.804,3.201,8.31,7.471,8.31c1.678,0,3.049-0.457,4.424-1.602v1.295h5.027V2.172H110.139L110.139,2.172z M110.139,21.454
				c-0.992,0.918-1.906,1.296-2.974,1.296c-2.362,0-3.888-1.98-3.888-4.877c0-3.202,1.521-5.029,4.041-5.029
				c0.914,0,2.132,0.382,2.82,0.913V21.454L110.139,21.454z"/>
			<path fill="#58585B" d="M125.762,9.488c-4.955,0-8.459,3.508-8.459,8.385c0,4.953,3.659,8.232,9.299,8.232
				c1.223,0,4.269,0,7.164-2.136v-3.126c-2.361,1.677-3.963,2.285-5.941,2.285c-3.202,0-5.106-1.677-5.338-4.495h11.51
				C134.223,12.767,130.411,9.488,125.762,9.488L125.762,9.488z M122.641,15.969c0.229-2.212,1.446-3.508,3.428-3.508
				c1.98,0,3.275,1.375,3.507,3.508H122.641L122.641,15.969z"/>
			<path fill="#58585B" d="M141.538,14.367h0.077c1.447-3.354,3.123-4.879,5.105-4.879c0.988,0,1.829,0.382,3.276,1.451l-1.372,4.42
				c-1.296-0.84-2.134-1.146-2.975-1.146c-1.828,0-3.049,1.755-4.115,4.648v6.938h-5.029V9.794h5.029L141.538,14.367L141.538,14.367
				z"/>
		</g>
		<path fill="#58585B" d="M96.418,3.009c0.458,1.296-0.382,3.05-1.904,3.889c-1.527,0.916-3.127,0.61-3.584-0.609
			c-0.457-1.218,0.383-2.974,1.907-3.887C94.361,1.487,95.959,1.791,96.418,3.009L96.418,3.009z"/>
	</g>
	<path fill="#58585B" d="M134.266,30.081c0.162,0.435-0.164,1.03-0.707,1.358c-0.545,0.324-1.088,0.217-1.25-0.223
		c-0.162-0.434,0.108-1.029,0.651-1.354C133.503,29.537,134.046,29.645,134.266,30.081L134.266,30.081z"/>
	<path fill="#58585B" d="M54.634,38.7l0.667-2.058h4.556c0.313-0.615,0.579-1.234,0.798-1.854h-5.053l0.667-2.057h4.943
		c0.563-3.045-0.114-5.838-2.155-7.588c-3.91-3.352-11.373-1.646-16.612,3.803c-5.239,5.441-6.323,12.613-2.413,15.966
		c3.91,3.354,11.374,1.646,16.612-3.8c0.747-0.775,1.405-1.59,1.98-2.416L54.634,38.7L54.634,38.7z M40.775,31.003h3.023
		l-0.665,2.056h-3.655C39.853,32.367,40.285,31.677,40.775,31.003z M38.009,36.968c0.145-0.679,0.353-1.366,0.617-2.058h4.206
		l-0.668,2.058H38.009z M53.845,31.65l-1.639,6.182c-0.623,2.354-3.603,4.109-6.036,4.109h-5.261l0.833-3.217l2.932,0.024
		c0.472,0.004,1.075-0.313,1.179-0.772l1.294-5.691c0.531-2.348,3.461-4.199,5.865-4.199h5.201l-0.689,2.906l-2.729,0.027
		C54.184,31.025,53.973,31.164,53.845,31.65z"/>
</g>
</svg>
