<?xml version="1.0" encoding="utf-8"?>
<!-- Generator: Adobe Illustrator 16.0.3, SVG Export Plug-In . SVG Version: 6.00 Build 0)  -->
<!DOCTYPE svg PUBLIC "-//W3C//DTD SVG 1.1//EN" "http://www.w3.org/Graphics/SVG/1.1/DTD/svg11.dtd">
<svg version="1.1" id="Layer_1" xmlns="http://www.w3.org/2000/svg" xmlns:xlink="http://www.w3.org/1999/xlink" x="0px" y="0px"
	 width="132.25px" height="53.167px" viewBox="0 0 132.25 53.167" enable-background="new 0 0 132.25 53.167" xml:space="preserve">
<path fill="#FFFFFF" d="M0.096,6.199L0,43.769c0,0,3.589-1.342,6.963-2.131v7.035c0,0,9.189-2.369,18.163-2.369
	s30.289,3.834,39.196,5.098c9.622,1.365,46.735,5.816,67.915-8.257V7.227l-6.103,2.369V0c0,0-17.351,7.107-31.899,7.107
	c-14.547,0-25.748-0.574-37.042-2.775C45.896,2.131,22.781-4.666,0.096,6.199z"/>
<path fill="#58585B" d="M123.607,3.628c0.006,0.151,0.018,33.655,0.018,33.766c-0.08,0.063-5.191,2.371-7.768,3.131
	c-2.586,0.762-5.213,1.35-7.864,1.813c-1.813,0.316-3.634,0.596-5.458,0.813c-2.035,0.242-4.078,0.437-6.122,0.581
	c-3.101,0.223-6.206,0.26-9.313,0.189c-1.49-0.032-2.982-0.047-4.477-0.107c-1.939-0.08-3.88-0.188-5.818-0.309
	c-1.477-0.092-2.953-0.205-4.426-0.35c-1.701-0.164-3.4-0.352-5.098-0.564c-1.965-0.248-3.928-0.525-5.888-0.818
	c-1.517-0.227-3.026-0.492-4.54-0.736c-2.15-0.351-4.298-0.711-6.453-1.035c-2.297-0.344-4.596-0.672-6.899-0.961
	c-1.902-0.242-3.811-0.44-5.721-0.615c-2.14-0.194-4.282-0.379-6.428-0.504c-3.321-0.19-6.645-0.297-9.971-0.139
	c-2.782,0.135-5.555,0.383-8.316,0.762c-2.813,0.388-5.605,0.858-8.333,1.66c-0.721,0.213-1.42,0.506-2.129,0.762
	c-0.1,0.037-0.199,0.076-0.33,0.127c0-0.152,0-0.27,0-0.391c0-10.804,0.001-21.976-0.008-32.778C2.464,7.77,5.325,6.439,6.76,5.996
	c4.325-1.339,8.798-2.136,13.291-2.66c5.631-0.656,11.424-0.51,17.04,0.091c15.035,1.604,29.681,5.355,44.834,6.16
	c4.276,0.227,8.563,0.275,12.843,0.115c6.254-0.237,12.416-1.082,18.484-2.626C116.691,6.199,123.49,3.668,123.607,3.628z
	 M47.956,31.958c0.085,0,0.183,0,0.28,0c1.383,0,2.767-0.014,4.149,0.006c0.302,0.002,0.375-0.096,0.403-0.387
	c0.124-1.267,0.226-2.535,0.44-3.783c0.387-2.256,0.848-4.5,1.283-6.746c0.045-0.233,0.05-0.532,0.196-0.678
	c0.687-0.687,1.489-1.165,2.517-1.041c0.668,0.08,1.11,0.587,1.096,1.26c-0.009,0.437-0.024,0.882-0.103,1.31
	c-0.481,2.649-0.981,5.295-1.476,7.939c-0.128,0.686-0.262,1.365-0.396,2.068c0.123,0.01,0.21,0.021,0.295,0.022
	c1.328,0.006,2.656,0.002,3.984,0.026c0.317,0.006,0.371-0.117,0.399-0.396c0.129-1.273,0.232-2.557,0.444-3.816
	c0.364-2.167,0.802-4.328,1.211-6.489c0.053-0.289,0.044-0.653,0.217-0.845c0.64-0.708,1.424-1.171,2.438-1.017
	c0.552,0.086,1.027,0.535,1.068,1.02c0.026,0.316,0.04,0.643-0.013,0.954c-0.326,1.909-0.67,3.816-1.013,5.722
	c-0.191,1.068-0.384,2.138-0.291,3.231c0.069,0.826,0.512,1.45,1.335,1.568c0.862,0.12,1.745,0.085,2.619,0.104
	c0.146,0.006,0.293-0.039,0.438-0.06c-0.031-0.013-0.063-0.024-0.097-0.038c0.07-0.928,0.077-1.861,0.224-2.777
	c0.414-2.617,0.888-5.224,1.328-7.833c0.127-0.758,0.24-1.521,0.064-2.287c-0.336-1.475-1.6-2.454-3.211-2.527
	c-1.713-0.077-3.235,0.449-4.629,1.405c-0.192,0.133-0.37,0.289-0.562,0.438c-0.606-1.299-1.675-1.791-3.007-1.848
	c-1.021-0.045-1.982,0.215-2.89,0.646c-0.638,0.303-1.243,0.678-1.866,1.023c-0.009-0.057-0.016-0.142-0.032-0.225
	c-0.14-0.778-0.459-1.041-1.253-1.042c-0.483,0-0.966,0-1.449,0c-0.536,0-1.07,0-1.562,0C49.877,21.95,49.155,26.97,47.956,31.958z
	 M26.422,31.939c0.01-0.088,0.018-0.141,0.024-0.195c0.154-1.402,0.269-2.813,0.476-4.213c0.316-2.146,0.696-4.28,1.052-6.418
	c0.035-0.212,0.042-0.488,0.175-0.615c0.768-0.733,1.645-1.25,2.769-1.102c0.85,0.114,1.357,0.772,1.265,1.619
	c-0.027,0.239-0.054,0.479-0.09,0.718c-0.294,1.938-0.603,3.874-0.884,5.813c-0.129,0.896-0.263,1.801-0.288,2.705
	c-0.024,0.928,0.574,1.604,1.498,1.709c0.769,0.088,1.552,0.041,2.329,0.043c0.169,0,0.339-0.039,0.516-0.063
	c-0.02-0.271-0.066-0.511-0.05-0.748c0.054-0.767,0.091-1.532,0.206-2.291c0.427-2.803,0.878-5.604,1.325-8.404
	c0.285-1.789-0.625-3.292-2.363-3.811c-1.679-0.501-3.254-0.143-4.74,0.701c-0.396,0.225-0.766,0.5-1.189,0.78
	c0.068-0.355,0.132-0.672,0.189-0.99c0.235-1.304,0.504-2.601,0.694-3.911c0.127-0.883-0.209-1.214-1.097-1.22
	c-1.021-0.008-2.042-0.003-3.063,0c-0.084,0-0.167,0.019-0.195,0.021c-0.799,6.703-2.241,13.257-3.379,19.872
	C23.173,31.939,24.784,31.939,26.422,31.939z M20.997,26.556c-0.208,0.195-0.365,0.339-0.519,0.488
	c-1.283,1.237-2.769,2.027-4.593,2.06c-1.158,0.021-2.249-0.201-3.169-0.959c-1.246-1.026-1.432-2.925-0.431-4.38
	c0.742-1.08,1.84-1.63,3.049-1.991c1.155-0.344,2.341-0.454,3.545-0.411c0.147,0.004,0.311,0.051,0.371-0.165
	c0.217-0.791,0.44-1.578,0.661-2.358c-0.027-0.019-0.035-0.03-0.043-0.03c-0.174-0.003-0.35-0.006-0.525-0.005
	c-0.905,0.008-1.741-0.217-2.451-0.792c-0.763-0.617-1.028-1.441-0.839-2.383c0.176-0.877,0.768-1.405,1.615-1.643
	c1.089-0.308,2.103-0.1,3.055,0.479c0.183,0.111,0.358,0.234,0.556,0.366c0.359-0.814,0.703-1.592,1.054-2.384
	c-0.118-0.073-0.204-0.144-0.302-0.185c-0.85-0.345-1.679-0.764-2.556-1.009c-1.975-0.552-3.908-0.429-5.713,0.646
	c-2.235,1.331-2.951,3.809-1.73,6.107c0.281,0.525,0.694,0.979,1.041,1.462c-0.016,0.005-0.087,0.028-0.161,0.051
	c-1.918,0.595-3.646,1.497-4.975,3.052c-1.208,1.413-1.774,3.037-1.512,4.899c0.307,2.159,1.54,3.603,3.525,4.43
	c1.031,0.429,2.119,0.61,3.228,0.692c1.429,0.109,2.829-0.006,4.18-0.487c1.551-0.554,2.782-1.481,3.375-3.088
	C21.016,28.248,21.097,27.451,20.997,26.556z M85.587,31.908c-0.269-1.171-0.198-2.342-0.034-3.504
	c0.223-1.581,0.487-3.158,0.766-4.731c0.391-2.175,0.787-4.349,1.451-6.463c0.043-0.139,0.076-0.28,0.119-0.444
	c-1.268-0.052-2.475,0.014-3.66,0.349c-0.188,0.052-0.422,0.025-0.619-0.027c-0.705-0.187-1.394-0.514-2.105-0.58
	c-1.67-0.154-3.211,0.334-4.602,1.263c-2.156,1.444-3.504,3.495-4.295,5.926c-0.562,1.721-0.799,3.48-0.397,5.275
	c0.47,2.104,1.937,3.262,4.083,3.271c1.236,0.008,2.339-0.418,3.38-1.031c0.446-0.268,0.854-0.594,1.294-0.897
	c0.021,0.196,0.04,0.392,0.063,0.585c0.072,0.564,0.404,0.977,0.969,0.996C83.175,31.937,84.357,31.908,85.587,31.908z
	 M110.771,18.229c-0.014-0.094-0.02-0.136-0.021-0.178c-0.049-0.799-0.438-1.172-1.229-1.172c-0.582,0-1.162,0-1.744,0
	c-0.459,0-0.916,0-1.348,0c-0.598,5.072-1.277,10.09-2.461,15.044c0.063,0.013,0.111,0.031,0.163,0.031
	c1.524,0.004,3.052,0,4.577,0.006c0.207,0,0.245-0.096,0.264-0.279c0.105-1.059,0.196-2.116,0.352-3.167
	c0.326-2.265,0.688-4.525,1.039-6.786c0.056-0.354,0.044-0.783,0.24-1.037c0.638-0.813,1.472-1.341,2.558-1.333
	c0.866,0.007,1.438,0.375,1.563,1.065c0.055,0.296,0.055,0.618,0.006,0.916c-0.369,2.146-0.769,4.289-1.135,6.435
	c-0.147,0.86-0.349,1.72-0.229,2.608c0.104,0.783,0.562,1.387,1.333,1.515c0.676,0.11,1.373,0.104,2.063,0.116
	c0.34,0.007,0.682-0.057,0.993-0.088c0-0.771-0.081-1.49,0.019-2.186c0.213-1.541,0.521-3.067,0.781-4.599
	c0.271-1.575,0.578-3.145,0.781-4.727c0.239-1.879-0.758-3.27-2.578-3.711c-1.063-0.257-2.126-0.24-3.183,0.08
	C112.57,17.088,111.666,17.587,110.771,18.229z M90.338,16.882c-0.465,5.086-1.41,10.062-2.418,15.049
	c0.047,0.006,0.109,0.021,0.171,0.021c1.505,0.004,3.007,0,4.511,0.008c0.246,0,0.28-0.117,0.299-0.32
	c0.109-1.068,0.201-2.141,0.354-3.202c0.326-2.254,0.685-4.504,1.035-6.755c0.054-0.343,0.043-0.76,0.235-1.003
	c0.603-0.757,1.379-1.265,2.397-1.321c1.251-0.07,1.949,0.649,1.74,1.885c-0.365,2.148-0.769,4.289-1.132,6.437
	c-0.131,0.754-0.264,1.518-0.275,2.279c-0.021,1.229,0.575,1.888,1.786,2.013c0.662,0.067,1.334,0.03,2.002,0.028
	c0.202,0,0.405-0.033,0.526-0.047c0.037-0.817,0-1.604,0.119-2.365c0.315-1.988,0.707-3.965,1.052-5.949
	c0.192-1.122,0.405-2.244,0.516-3.375c0.126-1.331-0.313-2.442-1.53-3.145c-0.619-0.356-1.299-0.516-2.004-0.574
	c-1.75-0.144-3.267,0.484-4.684,1.437c-0.107,0.074-0.223,0.149-0.359,0.246c-0.029-0.189-0.048-0.32-0.068-0.448
	c-0.092-0.53-0.424-0.888-0.899-0.896C92.593,16.869,91.475,16.882,90.338,16.882z M39.877,16.878c0,0.085,0,0.137,0.001,0.189
	c0.011,0.886,0.093,1.777,0.015,2.655c-0.129,1.461-0.336,2.918-0.563,4.367c-0.293,1.871-0.63,3.735-0.971,5.598
	c-0.137,0.749-0.335,1.486-0.512,2.249c1.554,0,3.096,0,4.669,0c0.018-0.181,0.04-0.354,0.051-0.524
	c0.033-0.461,0.03-0.925,0.096-1.379c0.268-1.877,0.534-3.75,0.847-5.619c0.203-1.2,0.631-2.325,1.408-3.288
	c0.636-0.792,1.434-1.26,2.484-1.129c0.392,0.048,0.774,0.174,1.192,0.273c0.172-1.113,0.352-2.235,0.513-3.36
	c0.01-0.065-0.102-0.183-0.183-0.218c-0.636-0.281-1.29-0.194-1.933-0.039c-0.887,0.214-1.549,0.795-2.182,1.411
	c-0.223,0.218-0.448,0.433-0.708,0.683c-0.01-0.11-0.017-0.153-0.018-0.195c-0.052-1.263-0.479-1.676-1.729-1.676
	c-0.044,0-0.088,0-0.131,0C41.445,16.878,40.669,16.878,39.877,16.878z"/>
<path fill="#FFFFFF" d="M47.956,31.958c1.2-4.986,1.922-10.008,2.585-15.083c0.492,0,1.026,0,1.562,0c0.483,0,0.966,0,1.449,0
	c0.795,0,1.113,0.264,1.253,1.042c0.016,0.082,0.023,0.167,0.032,0.224c0.624-0.344,1.228-0.72,1.866-1.023
	c0.908-0.431,1.869-0.69,2.89-0.645c1.332,0.058,2.401,0.548,3.007,1.848c0.19-0.149,0.368-0.304,0.562-0.438
	c1.394-0.958,2.917-1.484,4.629-1.406c1.613,0.074,2.875,1.052,3.211,2.527c0.176,0.767,0.061,1.529-0.066,2.286
	c-0.438,2.613-0.914,5.22-1.328,7.837c-0.145,0.914-0.148,1.852-0.221,2.777c0.031,0.01,0.063,0.023,0.094,0.034
	c-0.146,0.021-0.293,0.063-0.438,0.063c-0.874-0.023-1.758,0.015-2.619-0.108c-0.824-0.114-1.267-0.739-1.335-1.567
	c-0.093-1.096,0.1-2.162,0.291-3.229c0.343-1.909,0.687-3.815,1.013-5.725c0.051-0.309,0.039-0.636,0.013-0.952
	c-0.042-0.485-0.517-0.937-1.068-1.021c-1.013-0.155-1.798,0.308-2.438,1.017c-0.173,0.191-0.163,0.555-0.217,0.845
	c-0.41,2.161-0.847,4.319-1.211,6.485c-0.211,1.265-0.315,2.543-0.444,3.816c-0.028,0.277-0.083,0.402-0.399,0.396
	c-1.328-0.023-2.656-0.021-3.984-0.027c-0.085,0-0.172-0.014-0.295-0.021c0.134-0.703,0.268-1.387,0.396-2.066
	c0.495-2.646,0.994-5.293,1.476-7.941c0.079-0.429,0.093-0.873,0.103-1.311c0.015-0.672-0.428-1.179-1.096-1.259
	c-1.028-0.124-1.83,0.353-2.517,1.041c-0.146,0.145-0.151,0.444-0.196,0.678c-0.435,2.246-0.896,4.486-1.283,6.742
	c-0.214,1.25-0.316,2.521-0.44,3.783c-0.028,0.295-0.101,0.391-0.403,0.387c-1.382-0.016-2.766-0.006-4.149-0.006
	C48.138,31.958,48.041,31.958,47.956,31.958z"/>
<path fill="#FFFFFF" d="M26.422,31.939c-1.638,0-3.249,0-4.819,0c1.138-6.615,2.58-13.168,3.379-19.871
	c0.028-0.003,0.112-0.022,0.195-0.022c1.02-0.001,2.042-0.006,3.063,0c0.888,0.007,1.224,0.338,1.097,1.222
	c-0.189,1.309-0.458,2.608-0.694,3.91c-0.057,0.319-0.122,0.637-0.189,0.99c0.425-0.28,0.793-0.553,1.189-0.779
	c1.485-0.844,3.061-1.201,4.74-0.702c1.738,0.518,2.647,2.023,2.363,3.812c-0.447,2.801-0.899,5.602-1.325,8.405
	c-0.115,0.758-0.152,1.526-0.206,2.291c-0.018,0.237,0.03,0.477,0.05,0.747c-0.177,0.022-0.347,0.063-0.516,0.062
	c-0.776-0.002-1.56,0.045-2.329-0.043c-0.924-0.104-1.522-0.778-1.498-1.709c0.024-0.901,0.158-1.808,0.288-2.705
	c0.281-1.938,0.589-3.875,0.884-5.813c0.037-0.238,0.063-0.478,0.09-0.717c0.093-0.846-0.415-1.504-1.265-1.618
	c-1.124-0.15-2,0.368-2.769,1.101c-0.133,0.126-0.14,0.403-0.175,0.615c-0.357,2.138-0.736,4.273-1.052,6.417
	c-0.207,1.396-0.321,2.811-0.476,4.215C26.439,31.798,26.431,31.852,26.422,31.939z"/>
<path fill="#FFFFFF" d="M20.997,26.556c0.1,0.896,0.019,1.691-0.266,2.46c-0.593,1.604-1.825,2.534-3.375,3.088
	c-1.351,0.481-2.751,0.599-4.18,0.487c-1.109-0.082-2.198-0.264-3.228-0.692c-1.986-0.827-3.219-2.271-3.525-4.431
	c-0.263-1.863,0.304-3.485,1.512-4.898c1.328-1.554,3.056-2.457,4.975-3.052c0.073-0.023,0.146-0.046,0.161-0.051
	c-0.348-0.482-0.762-0.937-1.041-1.462c-1.22-2.296-0.505-4.775,1.729-6.107c1.804-1.074,3.737-1.198,5.713-0.646
	c0.878,0.246,1.707,0.664,2.556,1.009c0.099,0.041,0.185,0.112,0.302,0.185c-0.351,0.792-0.694,1.57-1.054,2.384
	c-0.198-0.131-0.374-0.254-0.556-0.366c-0.952-0.58-1.966-0.786-3.055-0.479c-0.846,0.239-1.438,0.765-1.614,1.643
	c-0.188,0.942,0.077,1.766,0.839,2.383c0.71,0.576,1.545,0.8,2.451,0.792c0.175-0.001,0.351,0.002,0.525,0.005
	c0.008,0,0.016,0.011,0.043,0.03c-0.22,0.78-0.444,1.569-0.661,2.358c-0.06,0.216-0.224,0.169-0.37,0.165
	c-1.204-0.042-2.391,0.067-3.545,0.411c-1.208,0.36-2.306,0.91-3.049,1.991c-1,1.456-0.815,3.354,0.432,4.38
	c0.92,0.758,2.011,0.979,3.169,0.959c1.825-0.032,3.31-0.822,4.593-2.06C20.631,26.895,20.79,26.75,20.997,26.556z"/>
<path fill="#FFFFFF" d="M85.587,31.908c-1.229,0-2.412,0.028-3.592-0.014c-0.562-0.021-0.894-0.432-0.966-0.996
	c-0.024-0.193-0.047-0.389-0.066-0.585c-0.436,0.306-0.847,0.633-1.294,0.897c-1.04,0.613-2.14,1.039-3.379,1.031
	c-2.147-0.013-3.615-1.168-4.083-3.271c-0.398-1.795-0.161-3.556,0.398-5.275c0.791-2.432,2.139-4.483,4.295-5.926
	c1.39-0.929,2.93-1.417,4.602-1.263c0.713,0.066,1.402,0.393,2.107,0.58c0.195,0.051,0.43,0.08,0.619,0.027
	c1.186-0.334,2.392-0.401,3.66-0.349c-0.043,0.165-0.078,0.307-0.121,0.444c-0.662,2.115-1.063,4.289-1.451,6.463
	c-0.276,1.573-0.541,3.15-0.767,4.731C85.389,29.564,85.318,30.737,85.587,31.908z M82.797,19.3
	c-1.074-0.523-2.738-0.485-3.686,0.689c-0.766,0.95-1.25,2.03-1.586,3.183c-0.444,1.519-0.783,3.056-0.631,4.658
	c0.137,1.434,1.039,1.94,2.313,1.305c0.74-0.365,1.342-0.906,1.854-1.551c0.071-0.088,0.136-0.203,0.155-0.313
	C81.749,24.617,82.271,21.966,82.797,19.3z"/>
<path fill="#FFFFFF" d="M110.771,18.229c0.895-0.64,1.799-1.14,2.806-1.446c1.057-0.319,2.12-0.337,3.183-0.079
	c1.82,0.441,2.816,1.831,2.577,3.71c-0.202,1.584-0.513,3.153-0.782,4.727c-0.262,1.532-0.568,3.058-0.781,4.595
	c-0.098,0.696-0.018,1.418-0.018,2.188c-0.313,0.029-0.654,0.096-0.996,0.09c-0.688-0.016-1.384-0.008-2.06-0.117
	c-0.774-0.127-1.229-0.729-1.334-1.518c-0.117-0.887,0.081-1.746,0.229-2.604c0.366-2.147,0.768-4.289,1.135-6.435
	c0.051-0.297,0.051-0.621-0.006-0.917c-0.125-0.689-0.695-1.059-1.563-1.065c-1.087-0.007-1.92,0.52-2.558,1.334
	c-0.195,0.253-0.187,0.683-0.24,1.036c-0.354,2.26-0.713,4.521-1.038,6.786c-0.154,1.051-0.243,2.107-0.351,3.169
	c-0.021,0.185-0.059,0.276-0.266,0.276c-1.525-0.008-3.052-0.004-4.578-0.008c-0.051,0-0.102-0.018-0.16-0.029
	c1.182-4.957,1.861-9.97,2.459-15.042c0.43,0,0.891,0,1.348,0c0.582,0,1.164,0,1.744,0c0.793,0,1.183,0.373,1.229,1.172
	C110.755,18.092,110.762,18.133,110.771,18.229z"/>
<path fill="#FFFFFF" d="M90.338,16.882c1.137,0,2.255-0.012,3.373,0.006c0.477,0.008,0.809,0.367,0.9,0.896
	c0.021,0.128,0.039,0.258,0.063,0.448c0.146-0.098,0.257-0.173,0.363-0.247c1.417-0.952,2.933-1.581,4.685-1.437
	c0.702,0.059,1.383,0.217,2.002,0.575c1.217,0.702,1.658,1.814,1.532,3.144c-0.106,1.131-0.319,2.252-0.517,3.375
	c-0.344,1.985-0.732,3.961-1.051,5.949c-0.119,0.762-0.084,1.548-0.121,2.367c-0.119,0.01-0.322,0.045-0.525,0.045
	c-0.667,0.002-1.341,0.041-2.001-0.028c-1.212-0.124-1.81-0.78-1.787-2.013c0.017-0.762,0.146-1.525,0.274-2.278
	c0.363-2.148,0.768-4.289,1.134-6.438c0.209-1.236-0.489-1.956-1.742-1.885c-1.021,0.058-1.796,0.565-2.397,1.321
	c-0.192,0.243-0.184,0.661-0.234,1.004c-0.35,2.25-0.708,4.499-1.035,6.754c-0.152,1.062-0.244,2.134-0.354,3.201
	c-0.021,0.204-0.055,0.321-0.299,0.319c-1.504-0.008-3.012-0.002-4.516-0.004c-0.063,0-0.123-0.021-0.169-0.023
	C88.928,26.943,89.871,21.968,90.338,16.882z"/>
<path fill="#FFFFFF" d="M39.877,16.878c0.792,0,1.568,0,2.346,0c0.043,0,0.086,0,0.131,0c1.25,0,1.677,0.414,1.73,1.676
	c0.001,0.042,0.008,0.083,0.017,0.194c0.26-0.25,0.486-0.464,0.708-0.681c0.633-0.616,1.294-1.196,2.182-1.411
	c0.643-0.156,1.297-0.244,1.933,0.037c0.081,0.035,0.192,0.154,0.183,0.218c-0.161,1.125-0.34,2.248-0.513,3.36
	c-0.418-0.098-0.801-0.224-1.192-0.273c-1.05-0.131-1.848,0.338-2.484,1.129c-0.776,0.965-1.206,2.088-1.408,3.289
	c-0.313,1.867-0.579,3.744-0.847,5.619c-0.065,0.453-0.063,0.92-0.095,1.379c-0.013,0.172-0.034,0.344-0.052,0.524
	c-1.572,0-3.115,0-4.669,0c0.177-0.763,0.375-1.501,0.513-2.25c0.34-1.862,0.676-3.728,0.971-5.597
	c0.227-1.45,0.433-2.906,0.563-4.367c0.079-0.877-0.005-1.77-0.016-2.656C39.876,17.015,39.877,16.963,39.877,16.878z"/>
<path fill="#58585B" d="M82.797,19.3c-0.523,2.666-1.046,5.317-1.574,7.967c-0.021,0.111-0.084,0.227-0.156,0.316
	c-0.514,0.64-1.111,1.181-1.854,1.549c-1.275,0.638-2.18,0.125-2.314-1.303c-0.151-1.604,0.188-3.143,0.631-4.662
	c0.337-1.153,0.822-2.232,1.587-3.182C80.059,18.815,81.723,18.775,82.797,19.3z"/>
<path fill="#58585B" d="M129.84,10.485c-0.086,0.021-4.029,1.485-4.275,1.603c0.012,8.518,0.008,17.443,0.008,25.962
	c0,0.1-0.004,0.385-0.014,0.496c-0.093,0.082-1.178,0.699-1.68,0.945c-2.826,1.398-5.798,2.406-8.835,3.227
	c-4.67,1.255-9.418,2.087-14.235,2.503c-2.271,0.196-4.549,0.389-6.824,0.437c-4.762,0.1-9.523,0.038-14.28-0.234
	c-2.552-0.146-5.099-0.33-7.646-0.528c-1.539-0.123-3.076-0.282-4.604-0.479c-2.072-0.271-4.14-0.578-6.203-0.906
	c-2.668-0.424-5.328-0.895-7.995-1.325c-1.836-0.3-3.674-0.58-5.516-0.839c-1.756-0.245-3.515-0.461-5.275-0.672
	c-1.718-0.205-3.437-0.405-5.158-0.573c-1.451-0.142-2.904-0.259-4.357-0.347c-2.08-0.127-4.161-0.258-6.243-0.312
	c-3.755-0.093-7.5,0.128-11.226,0.582c-2.095,0.256-4.175,0.563-6.176,0.918c-0.001,0-0.002,0-0.003,0.002l-0.374,0.063l-0.009,0.92
	l0.011-0.012c0.005,1.498,0,2.871,0.001,4.396c0,0.073,0.011,0.149,0.019,0.231c0.088-0.013,0.164-0.018,0.239-0.031
	c2.76-0.598,5.528-1.155,8.345-1.389c2.37-0.193,4.745-0.358,7.12-0.432c1.774-0.053,3.555,0.053,5.33,0.116
	c1.007,0.034,2.014,0.118,3.019,0.21c1.461,0.131,2.921,0.279,4.381,0.438c1.393,0.148,2.785,0.305,4.175,0.481
	c1.529,0.192,3.056,0.413,4.584,0.633c1.992,0.286,3.984,0.567,5.973,0.882c2.388,0.373,4.77,0.786,7.156,1.164
	c2.497,0.391,4.994,0.779,7.495,1.133c1.625,0.229,3.258,0.414,4.895,0.567c1.949,0.183,3.906,0.351,5.863,0.456
	c2.4,0.129,4.804,0.229,7.203,0.271c3.854,0.066,7.705,0.06,11.551-0.201c2.34-0.16,4.675-0.377,7-0.647
	c1.998-0.231,3.992-0.526,5.975-0.88c2.799-0.498,5.563-1.166,8.286-1.986c4.166-1.256,12.194-5.177,12.3-5.248
	C129.836,41.988,129.84,10.625,129.84,10.485z"/>
</svg>
