<?xml version="1.0" encoding="utf-8"?>
<!-- Generator: Adobe Illustrator 16.0.3, SVG Export Plug-In . SVG Version: 6.00 Build 0)  -->
<!DOCTYPE svg PUBLIC "-//W3C//DTD SVG 1.1//EN" "http://www.w3.org/Graphics/SVG/1.1/DTD/svg11.dtd">
<svg version="1.1" id="Layer_1" xmlns="http://www.w3.org/2000/svg" xmlns:xlink="http://www.w3.org/1999/xlink" x="0px" y="0px"
	 width="167.292px" height="32.083px" viewBox="0 0 167.292 32.083" enable-background="new 0 0 167.292 32.083"
	 xml:space="preserve">
<path fill="#58585B" d="M0.069,0.059c0.147-0.083,0.308-0.036,0.46-0.036C5.961,0.02,11.394-0.034,16.824,0.035
	c5.687,0.07,11.374,0.007,17.061,0.048c0.171,0.001,0.427-0.099,0.496,0.101c0.056,0.164-0.198,0.252-0.317,0.364
	c-1.641,1.544-3.288,3.083-4.935,4.62c-2.954,2.755-5.909,5.508-8.862,8.263c-1.263,1.177-2.52,2.359-3.783,3.537
	c-2.547,2.373-5.099,4.742-7.645,7.117c-1.816,1.693-3.62,3.398-5.437,5.092c-1.094,1.023-2.198,2.031-3.29,3.037
	c-0.137-0.053-0.1-0.152-0.1-0.229c-0.001-5.217-0.001-10.436,0-15.652c0-0.057,0.011-0.114,0.016-0.17
	c0.081-0.225,0.252-0.375,0.421-0.533c1.153-1.068,2.283-2.161,3.447-3.216c1.853-1.68,3.632-3.436,5.495-5.104
	c0.937-0.837,1.84-1.714,2.753-2.58c1.471-1.396,2.975-2.759,4.44-4.161c0.099-0.095,0.227-0.17,0.272-0.322
	c-0.155-0.071-0.313-0.033-0.464-0.033c-5.218-0.002-10.437,0-15.655-0.008C0.512,0.207,0.246,0.311,0.069,0.059z"/>
<path fill="#58585B" d="M153.158,16.936c0.209-0.691,0.405-1.343,0.604-1.994c0.857-2.841,1.723-5.681,2.56-8.529
	c0.104-0.351,0.257-0.429,0.589-0.426c1.758,0.015,3.516,0.014,5.274,0.001c0.334-0.002,0.412,0.065,0.325,0.411
	c-1.396,5.607-2.776,11.218-4.164,16.83c-0.241,0.984-0.5,1.961-0.729,2.947c-0.072,0.32-0.283,0.309-0.515,0.309
	c-1.129-0.004-2.259-0.016-3.388-0.016c-1.857-0.004-3.717-0.01-5.573,0.01c-0.304,0.002-0.42-0.096-0.515-0.365
	c-1.17-3.313-2.353-6.617-3.53-9.926c-0.022-0.066-0.058-0.126-0.117-0.258c-0.229,0.439-0.304,0.87-0.416,1.28
	c-0.812,2.959-1.608,5.922-2.396,8.887c-0.058,0.213-0.139,0.273-0.34,0.273c-1.875-0.008-3.748-0.016-5.619,0
	c-0.383,0.002-0.297-0.199-0.246-0.404c0.354-1.443,0.713-2.883,1.072-4.322c0.946-3.795,1.895-7.589,2.842-11.385
	c0.326-1.316,0.653-2.633,0.965-3.953c0.059-0.24,0.154-0.318,0.4-0.317c2.889,0.009,5.776,0.012,8.662,0
	c0.28-0.001,0.365,0.128,0.441,0.346c1.176,3.339,2.354,6.678,3.531,10.015C152.943,16.532,152.975,16.731,153.158,16.936z"/>
<path fill="#58585B" d="M105.333,20.233c-0.285,1.324-0.549,2.551-0.813,3.775c-0.15,0.695-0.305,1.393-0.439,2.092
	c-0.045,0.234-0.166,0.301-0.385,0.301c-2.501-0.006-5.003,0-7.504-0.018c-0.876-0.008-0.887-0.039-0.68-0.895
	c0.542-2.248,1.098-4.494,1.642-6.74c0.716-2.956,1.423-5.913,2.138-8.868c0.295-1.22,0.607-2.436,0.89-3.659
	c0.06-0.257,0.174-0.313,0.405-0.312c2.631,0.005,5.262,0.01,7.892-0.004c0.411-0.002,0.479,0.129,0.386,0.5
	c-0.441,1.743-0.867,3.491-1.299,5.237c-0.02,0.081-0.029,0.164,0.023,0.301c0.354-0.33,0.709-0.656,1.06-0.991
	c1.69-1.619,3.382-3.239,5.067-4.864c0.209-0.2,0.423-0.289,0.719-0.288c2.745,0.013,5.49,0.009,8.234,0.009
	c0.138,0,0.274,0,0.436,0c-0.453,0.478-0.85,0.935-1.285,1.353c-2.637,2.532-5.281,5.055-7.924,7.581
	c-0.352,0.335-0.695,0.678-1.061,0.999c-0.179,0.158-0.181,0.286-0.051,0.473c1.528,2.219,3.055,4.445,4.58,6.668
	c0.729,1.059,1.448,2.123,2.18,3.178c0.158,0.227,0.15,0.313-0.154,0.313c-3.016-0.008-6.032-0.012-9.049-0.01
	c-0.225,0-0.358-0.092-0.491-0.266c-1.396-1.842-2.802-3.676-4.207-5.512C105.568,20.489,105.479,20.399,105.333,20.233z"/>
<path fill="#58585B" d="M91.658,5.825c1.4,0,2.801,0.012,4.202-0.008c0.356-0.005,0.396,0.097,0.318,0.414
	c-0.812,3.269-1.604,6.542-2.412,9.812c-0.772,3.132-1.556,6.259-2.339,9.386c-0.248,0.99-0.256,0.988-1.286,0.988
	c-2.544,0-5.087-0.006-7.632,0.006c-0.383,0.002-0.497-0.072-0.396-0.477c0.947-3.795,1.88-7.594,2.814-11.39
	c0.668-2.715,1.343-5.429,1.99-8.149c0.106-0.444,0.273-0.607,0.752-0.592c1.33,0.04,2.658,0.014,3.988,0.014
	C91.658,5.826,91.658,5.826,91.658,5.825z"/>
<path fill="#58585B" d="M126.501,26.43c-1.399,0.002-2.801-0.008-4.203,0.008c-0.336,0.002-0.422-0.082-0.338-0.418
	c0.429-1.703,0.836-3.41,1.254-5.115c0.718-2.924,1.438-5.848,2.16-8.771c0.49-1.996,0.983-3.991,1.469-5.988
	c0.059-0.246,0.193-0.312,0.426-0.312c2.83,0.004,5.661,0.006,8.49-0.004c0.387-0.002,0.33,0.194,0.271,0.437
	c-0.5,2.007-1,4.015-1.493,6.023c-0.748,3.034-1.492,6.068-2.238,9.104c-0.379,1.539-0.768,3.074-1.129,4.619
	c-0.076,0.328-0.219,0.428-0.551,0.424C129.248,26.42,127.875,26.43,126.501,26.43z"/>
<path fill="#58585B" d="M0.069,0.059c0.185,0.006,0.37,0.019,0.555,0.019C6,0.079,11.375,0.079,16.751,0.082
	c0.135,0,0.28-0.047,0.449,0.074c-0.696,0.653-1.376,1.294-2.061,1.933c-4.75,4.435-9.502,8.869-14.254,13.303
	c-0.282,0.262-0.572,0.515-0.857,0.773c-0.006-0.3-0.018-0.599-0.018-0.899C0.009,10.348,0.009,5.431,0.012,0.514
	C0.012,0.361-0.04,0.199,0.069,0.059z"/>
<path fill="#58585B" d="M56.121,10.413c-1.648-3.007-4.438-4.35-7.664-4.494c-4.45-0.201-8.916-0.05-13.375-0.05
	c-0.057,0-0.114,0-0.172,0c-0.227,0-0.346,0.082-0.403,0.335c-0.541,2.393-1.1,4.783-1.654,7.173
	c-0.966,4.173-1.933,8.343-2.899,12.513c-0.122,0.525-0.122,0.525,0.419,0.525c2.672,0,5.345,0,8.018,0c0-0.004,0-0.008,0-0.012
	c2.187,0,4.374-0.043,6.56,0.014c1.458,0.037,2.838-0.207,4.186-0.727c3.007-1.156,5.301-3.098,6.667-6.057
	c0.563-1.219,0.824-2.514,1.005-3.836C57.063,13.936,57.044,12.097,56.121,10.413z M48.053,17.77
	c-0.688,1.48-1.732,2.584-3.276,3.203c-0.748,0.299-1.512,0.246-2.28,0.256c-0.171,0.002-0.343,0-0.514,0c0,0.008,0,0.018,0,0.025
	c-0.585,0-1.172-0.02-1.757,0.008c-0.364,0.018-0.395-0.109-0.315-0.42c0.556-2.186,1.099-4.374,1.645-6.56
	c0.262-1.052,0.528-2.103,0.779-3.157c0.069-0.292,0.188-0.435,0.521-0.419c0.584,0.026,1.171,0.003,1.758,0.003
	c1.489,0,3.328,1.324,3.737,2.756C48.765,14.922,48.703,16.372,48.053,17.77z"/>
<path fill="#58585B" d="M80.222,25.897c-0.751-4.23-1.499-8.461-2.25-12.691c-0.412-2.318-0.839-4.635-1.239-6.956
	c-0.055-0.31-0.172-0.394-0.471-0.39c-1.587,0.012-3.173,0.005-4.761,0.005c0,0.001,0,0.003,0,0.004
	c-1.587,0-3.174,0.005-4.761-0.005c-0.287-0.001-0.459,0.075-0.606,0.347c-2.096,3.897-4.206,7.786-6.314,11.679
	c-1.463,2.699-2.926,5.398-4.396,8.094c-0.161,0.295-0.115,0.393,0.233,0.389c1.687-0.012,3.373-0.012,5.061-0.006
	c0.188,0,0.305-0.043,0.409-0.223c0.641-1.111,1.308-2.211,1.947-3.324c0.14-0.244,0.304-0.33,0.58-0.328
	c2.172,0.01,4.346,0.01,6.519-0.004c0.295-0.002,0.393,0.109,0.443,0.379c0.19,1.039,0.417,2.07,0.591,3.111
	c0.053,0.318,0.179,0.379,0.47,0.377c2.731-0.01,5.461-0.014,8.192,0.004C80.272,26.36,80.274,26.192,80.222,25.897z M69.613,17.788
	c-1.07-0.033-2.141-0.033-3.212-0.039c-0.305,0-0.394-0.08-0.211-0.371c0.858-1.348,1.705-2.702,2.554-4.056
	c0.061-0.097,0.101-0.209,0.279-0.253c0.124,0.565,0.252,1.129,0.37,1.696c0.181,0.867,0.344,1.737,0.539,2.599
	C70.002,17.672,69.98,17.797,69.613,17.788z"/>
</svg>
