<svg width="109" height="36" viewBox="0 0 109 36" fill="none" xmlns="http://www.w3.org/2000/svg">
<g clip-path="url(#clip0)">
<path d="M32.134 0.624618L22.9674 23.7946L19.2576 4.09378C19.1056 3.12571 18.6123 2.24393 17.867 1.60772C17.1216 0.971512 16.1733 0.622817 15.1934 0.624618H0.206799L0 1.60797C3.07666 2.27901 6.57115 3.37631 8.68978 4.50738C9.98544 5.21218 10.3568 5.82414 10.8 7.49963L17.8058 34.6705H27.0907L41.3851 0.624618H32.134ZM45.1624 0.624618L37.878 34.6705H46.6859L53.9703 0.624618H45.1624ZM95.6636 9.82085L98.3351 22.6044H91.0254L95.6636 9.82085ZM94.3721 0.624618C93.5692 0.615766 92.7822 0.848989 92.1137 1.29389C91.4452 1.7388 90.9262 2.37475 90.6244 3.11887L77.4062 34.6705H86.653L88.4889 29.5849H99.7911L100.867 34.6705H109.013L101.889 0.624618H94.3721ZM56.3675 11.2516C56.3127 16.1599 60.7441 18.8905 64.0824 20.5364C67.5093 22.2246 68.6615 23.2754 68.6489 24.7568C68.6235 27.04 65.9098 28.0487 63.3776 28.0867C58.9504 28.1584 56.3802 26.8923 54.3291 25.9385L52.7549 33.3917C54.8102 34.3371 58.6085 35.1601 62.5462 35.2023C71.8015 35.2023 77.8535 30.6316 77.8831 23.554C77.921 14.5688 65.4582 14.0708 65.5426 10.0487C65.568 8.82905 66.7328 7.51651 69.2777 7.19576C72.2559 6.91284 75.2552 7.43921 77.959 8.71932L79.5079 1.50246C76.8682 0.512223 74.0722 0.00335087 71.2528 0C62.5462 0 56.4182 4.64243 56.3675 11.2516Z" fill="#58585B"/>
</g>
<defs>
<clipPath id="clip0">
<rect width="109" height="35.2023" fill="white"/>
</clipPath>
</defs>
</svg>
