<?xml version="1.0" encoding="utf-8"?>
<!-- Generator: Adobe Illustrator 16.0.3, SVG Export Plug-In . SVG Version: 6.00 Build 0)  -->
<!DOCTYPE svg PUBLIC "-//W3C//DTD SVG 1.1//EN" "http://www.w3.org/Graphics/SVG/1.1/DTD/svg11.dtd">
<svg version="1.1" id="Layer_1" xmlns="http://www.w3.org/2000/svg" xmlns:xlink="http://www.w3.org/1999/xlink" x="0px" y="0px"
	 width="150px" height="33.167px" viewBox="0 0 150 33.167" enable-background="new 0 0 150 33.167" xml:space="preserve">
<path fill="#58585B" d="M127.45,7.779c0-0.222,0.181-0.401,0.403-0.401h6.576c0.225,0,0.404,0.18,0.404,0.401v15.24
	c0,0.137,0.105,0.241,0.238,0.241h13.97c0.224,0,0.403,0.181,0.403,0.401v3.559c0,0.225-0.182,0.404-0.403,0.404h-21.351
	c-0.137,0-0.242-0.105-0.242-0.239L127.45,7.779L127.45,7.779z"/>
<path fill="#58585B" d="M125.035,7.377c0.223,0,0.402,0.18,0.402,0.401v3.559c0,0.22-0.181,0.401-0.402,0.401h-15.128
	c-0.136,0-0.241,0.109-0.241,0.242v3.098c0,0.13,0.105,0.24,0.241,0.24h11.772c0.221,0,0.399,0.182,0.399,0.402v3.56
	c0,0.221-0.181,0.402-0.399,0.402h-11.772c-0.136,0-0.241,0.107-0.241,0.239v3.098c0,0.136,0.105,0.242,0.241,0.242h15.128
	c0.223,0,0.402,0.181,0.402,0.401v3.559c0,0.225-0.181,0.404-0.402,0.404h-22.51c-0.137,0-0.244-0.105-0.244-0.241V7.62
	c0-0.137,0.107-0.242,0.244-0.242H125.035z"/>
<path fill="#58585B" d="M94.169,7.375L75.9,7.377c-0.131,0-0.242,0.105-0.242,0.242V27.22c0,0.223,0.181,0.402,0.4,0.402h6.58
	c0.225,0,0.4-0.18,0.4-0.402v-5.621c0-0.132,0.109-0.238,0.244-0.238h10.885c3.844,0,6.619-2.033,6.619-6.993
	C100.787,9.407,98.012,7.375,94.169,7.375z M91.316,16.993l-8.032,0.005c-0.134,0-0.244-0.108-0.244-0.243v-4.772
	c0-0.133,0.11-0.242,0.244-0.242l8.032,0.004c1.457,0,2.512,0.743,2.512,2.625S92.773,16.993,91.316,16.993z"/>
<path fill="#58585B" d="M73.114,11.75c-0.7-2.801-3.541-4.12-5.762-4.374c-5.368-0.616-10.012-0.588-14.906,0
	c-2.217,0.267-5.06,1.573-5.758,4.374c-0.618,3.072-0.703,8.602,0,11.396c0.698,2.799,3.551,4.086,5.758,4.42
	c4.895,0.59,9.54,0.618,14.906,0c2.209-0.334,5.062-1.621,5.762-4.42C73.815,20.352,73.729,14.824,73.114,11.75z M66.646,20.556
	c-0.36,1.434-1.494,2.209-2.626,2.379c-2.746,0.316-5.652,0.303-8.157,0c-1.129-0.17-2.263-0.947-2.622-2.379
	c-0.195-0.771-0.184-5.311,0-6.224c0.359-1.429,1.487-2.061,2.622-2.198c2.506-0.299,5.411-0.314,8.157,0
	c1.126,0.137,2.267,0.767,2.626,2.198C66.827,15.245,66.839,19.785,66.646,20.556z"/>
<path fill="#58585B" d="M37.335,17.733c0.013-0.243,0.018-0.487,0.018-0.735c0-8.931-7.24-16.171-16.169-16.171
	c-7.606,0-13.985,5.25-15.714,12.323L0,13.204v2.924l5.022,0.214c-0.008,0.219-0.011,0.437-0.011,0.657
	c0,8.929,7.239,16.169,16.172,16.169c7.591,0,13.966-5.236,15.702-12.295l5.436-0.057v-2.869L37.335,17.733z M21.184,31.316
	c-7.91,0-14.319-6.412-14.319-14.318c0-0.195,0.003-0.388,0.012-0.579l10.637,0.459l-5.526,4.254l22.974-0.238
	C33.264,26.906,27.737,31.316,21.184,31.316z M35.484,17.653l-10.62-0.456l5.647-4.285L7.395,13.131
	c1.687-6.028,7.22-10.449,13.789-10.449c7.906,0,14.316,6.411,14.316,14.316C35.5,17.216,35.492,17.437,35.484,17.653z"/>
</svg>
